<svg width="151" height="91" viewBox="0 0 151 91" fill="none" xmlns="http://www.w3.org/2000/svg">
<path d="M10.5 75.9236C5.83333 74.7903 2.36667 70.8903 0.0999994 64.2236C0.0333326 63.8236 0 63.0236 0 61.8236C0 60.157 0.0666662 58.5236 0.2 56.9236C0.333333 55.257 0.5 54.2903 0.7 54.0236C0.9 53.8903 1 53.4903 1 52.8236C0.933333 52.4236 1.16667 51.3236 1.7 49.5236C2.16667 48.3236 2.3 47.2903 2.1 46.4236C2.16667 46.2903 2.26667 46.057 2.4 45.7236C2.6 45.3903 2.83333 45.057 3.1 44.7236C3.43333 44.3903 3.6 44.057 3.6 43.7236C3.66667 43.3236 3.66667 43.057 3.6 42.9236V42.8236C3.6 42.557 3.66667 42.2236 3.8 41.8236C4 41.357 4.2 40.9903 4.4 40.7236C4.6 40.5236 4.76667 40.257 4.9 39.9236C5.1 39.5903 5.23333 39.357 5.3 39.2236C5.36667 38.757 5.86667 37.2903 6.8 34.8236C7.8 32.2903 8.46667 30.757 8.8 30.2236V30.0236C9.06667 29.357 9.43333 28.657 9.9 27.9236C10.0333 26.9903 10.5 25.6903 11.3 24.0236C12.8333 20.6236 14.9667 16.7236 17.7 12.3236C20.5 7.85698 22.7 4.85698 24.3 3.32364C26.0333 1.32364 27.6 0.323639 29 0.323639C29.7333 0.323639 30.4 0.623639 31 1.22364C31.4667 1.69031 31.8333 2.35698 32.1 3.22364C32.4333 4.09031 32.6 4.85697 32.6 5.52364C32.6 6.45698 32.3333 6.95698 31.8 7.02364C31.1333 7.49031 30.1 8.85697 28.7 11.1236C27.3667 13.3903 25.5667 16.5903 23.3 20.7236L21.8 23.5236C20.9333 25.3903 20.1667 26.957 19.5 28.2236C18.9 29.4903 18.5 30.3236 18.3 30.7236L17.9 31.6236C16.3 35.0236 14.8 38.6903 13.4 42.6236C13.0667 43.0236 12.8333 43.457 12.7 43.9236C12.6333 44.3236 12.6 44.5903 12.6 44.7236C12.4667 44.657 12.3333 44.857 12.2 45.3236C12.1333 45.7236 12.0333 46.0903 11.9 46.4236C11.4333 46.8236 11.2 47.7903 11.2 49.3236C10.6 50.9236 10.0667 52.9236 9.6 55.3236C9.13333 57.7236 8.9 59.6903 8.9 61.2236C8.9 62.6903 9.13333 63.8903 9.6 64.8236C10.1333 65.757 10.9333 66.457 12 66.9236C13.6 67.7236 14.8 68.1236 15.6 68.1236C16.0667 68.1903 16.7667 68.157 17.7 68.0236C18.7 67.8903 19.8333 67.7236 21.1 67.5236H21C21.3333 67.457 23.1667 67.057 26.5 66.3236C28.1 66.1236 29.4333 65.8236 30.5 65.4236C31.0333 65.2903 31.7667 65.0903 32.7 64.8236C33.7 64.4903 34.4333 64.3236 34.9 64.3236C35.3667 64.257 35.7 64.2903 35.9 64.4236C36.3 64.8236 36.6667 65.3903 37 66.1236C37.4 66.7903 37.5 67.3903 37.3 67.9236C37.1667 68.257 36.4667 68.957 35.2 70.0236C33.9333 71.157 32.5333 72.2236 31 73.2236C29.4667 74.2236 28.1333 74.8903 27 75.2236C24.7333 76.2236 21.4667 76.7236 17.2 76.7236C14.2 76.7236 11.9667 76.457 10.5 75.9236Z" fill="#3F454A"/>
<path d="M50.4781 69.1236C49.6781 69.1236 49.0448 68.9903 48.5781 68.7236C48.1115 68.457 47.4448 67.957 46.5781 67.2236C45.2448 65.8236 44.2115 64.3903 43.4781 62.9236C42.7448 61.3903 42.4781 60.057 42.6781 58.9236C42.8781 58.457 42.9448 57.9903 42.8781 57.5236C42.8781 57.057 42.8781 56.757 42.8781 56.6236C42.6115 56.357 42.4781 56.1903 42.4781 56.1236C42.4781 55.9903 42.5448 55.8903 42.6781 55.8236C42.8115 55.6903 42.9115 55.557 42.9781 55.4236C43.3781 55.4236 43.5115 55.057 43.3781 54.3236C43.2448 53.7903 43.4781 52.6236 44.0781 50.8236C44.6781 49.0236 45.4448 47.357 46.3781 45.8236C47.1115 44.6236 48.1781 43.1236 49.5781 41.3236C51.0448 39.5236 52.3448 38.157 53.4781 37.2236C56.8115 34.357 59.8115 32.6236 62.4781 32.0236C63.8115 31.6903 65.1115 31.5236 66.3781 31.5236C68.3115 31.5236 69.8115 32.057 70.8781 33.1236C72.3448 33.7236 73.4115 34.5903 74.0781 35.7236C74.7448 36.857 75.1781 38.357 75.3781 40.2236C75.4448 40.6236 75.4781 41.2903 75.4781 42.2236C75.4781 47.157 73.6115 52.2903 69.8781 57.6236C68.3448 59.8236 66.8115 61.5903 65.2781 62.9236C63.7448 64.257 61.8781 65.5903 59.6781 66.9236C58.4781 67.7236 57.2115 68.257 55.8781 68.5236C54.5448 68.7903 52.7448 68.9903 50.4781 69.1236ZM60.6781 56.9236C61.9448 55.7903 62.8448 54.657 63.3781 53.5236C63.9781 52.3236 64.8115 50.257 65.8781 47.3236C66.2781 46.7236 66.4781 45.5236 66.4781 43.7236C66.4781 42.1236 66.2448 41.2236 65.7781 41.0236C65.4448 40.757 65.0448 40.6236 64.5781 40.6236C63.9781 40.6236 63.0115 41.0903 61.6781 42.0236C59.3448 44.0236 57.3781 46.1236 55.7781 48.3236C54.2448 50.457 53.1781 52.9236 52.5781 55.7236C52.5115 55.9903 52.4781 56.3903 52.4781 56.9236C52.4781 59.1903 53.2781 60.3236 54.8781 60.3236C56.4115 60.3236 58.3448 59.1903 60.6781 56.9236Z" fill="#3F454A"/>
<path d="M112.009 40.1236C112.275 40.657 112.409 41.3236 112.409 42.1236C112.409 43.657 111.909 45.0903 110.909 46.4236C110.709 46.757 110.342 47.2903 109.809 48.0236C109.275 48.6903 108.809 49.3903 108.409 50.1236C108.009 50.857 107.709 51.6903 107.509 52.6236C107.309 53.8903 106.909 55.4236 106.309 57.2236C105.775 58.957 105.409 60.1236 105.209 60.7236C104.675 62.1236 104.075 63.9903 103.409 66.3236L101.809 72.5236C100.342 77.5903 98.6419 81.4903 96.7086 84.2236C94.7753 87.0237 92.9753 88.8903 91.3086 89.8236C90.4419 90.157 89.6086 90.3236 88.8086 90.3236C87.3419 90.3236 85.8086 89.8236 84.2086 88.8236C82.6753 87.8903 81.3419 86.5903 80.2086 84.9236C79.4753 83.9236 78.5419 82.0237 77.4086 79.2236C76.2753 76.4903 75.9086 75.0236 76.3086 74.8236C76.5753 73.8903 77.5419 73.4236 79.2086 73.4236C80.0086 73.4236 80.7419 73.5237 81.4086 73.7236C82.0753 73.9903 82.4419 74.2903 82.5086 74.6236C83.1086 76.357 83.8419 77.6903 84.7086 78.6236C85.2419 79.4903 85.8086 80.157 86.4086 80.6236C87.0753 81.0903 87.7086 81.3236 88.3086 81.3236C88.7086 81.3236 88.9753 81.257 89.1086 81.1236C90.1753 80.3236 90.9753 79.357 91.5086 78.2236C92.1086 77.0903 92.9086 74.9903 93.9086 71.9236C95.4419 66.5903 96.6419 62.7903 97.5086 60.5236C97.7086 59.7903 98.0419 58.957 98.5086 58.0236L96.7086 59.4236C96.0419 59.957 95.3086 60.5237 94.5086 61.1236C93.7086 61.657 92.8419 62.1236 91.9086 62.5236C91.4419 63.1236 90.2753 63.4236 88.4086 63.4236C87.0086 63.4236 85.6753 63.2236 84.4086 62.8236C83.1419 62.157 82.1753 61.3903 81.5086 60.5236C80.9086 59.657 80.2753 58.357 79.6086 56.6236C79.3419 56.0903 79.2086 55.257 79.2086 54.1236C79.2086 51.257 79.8753 48.1903 81.2086 44.9236C82.4753 42.3236 84.4753 39.557 87.2086 36.6236C89.9419 33.6903 92.3086 31.9236 94.3086 31.3236C95.9086 30.5236 97.5753 30.1236 99.3086 30.1236C100.042 30.1236 100.575 30.1903 100.909 30.3236C101.975 30.457 102.809 30.6903 103.409 31.0236C104.009 31.357 105.009 32.1236 106.409 33.3236C109.609 36.5236 111.475 38.7903 112.009 40.1236ZM98.4086 49.5236C99.6086 47.857 100.409 46.357 100.809 45.0236C101.275 43.6903 101.442 42.2236 101.309 40.6236C101.242 38.957 100.509 38.1236 99.1086 38.1236C97.7086 38.1236 96.4753 38.5236 95.4086 39.3236C94.4086 40.1236 93.0753 41.557 91.4086 43.6236C90.4086 44.957 89.5753 46.557 88.9086 48.4236C88.3086 50.0903 88.0086 51.5236 88.0086 52.7236C88.0086 54.1903 88.4086 55.0903 89.2086 55.4236C91.3419 55.357 93.0086 54.9903 94.2086 54.3236C95.4086 53.657 96.8086 52.057 98.4086 49.5236Z" fill="#3F454A"/>
<path d="M125.834 69.0236C125.501 69.0903 125.068 69.1236 124.534 69.1236C123.668 69.1236 122.968 68.9903 122.434 68.7236C121.901 68.3903 121.268 67.857 120.534 67.1236C119.001 66.3903 117.668 65.157 116.534 63.4236C115.401 61.6903 114.901 60.3236 115.034 59.3236C115.368 56.1236 116.268 52.657 117.734 48.9236C119.201 45.1236 121.101 41.7236 123.434 38.7236C125.834 35.657 128.368 33.5236 131.034 32.3236C132.234 31.857 133.334 31.6236 134.334 31.6236C136.401 31.6236 137.768 32.2903 138.434 33.6236C138.901 34.557 139.134 35.257 139.134 35.7236C139.134 36.5236 138.668 37.057 137.734 37.3236C137.534 37.3236 137.301 37.4236 137.034 37.6236C136.768 37.8236 136.634 38.0236 136.634 38.2236C136.701 38.2903 137.001 38.3236 137.534 38.3236C138.668 38.3236 140.068 38.157 141.734 37.8236C143.401 37.4903 144.468 37.1236 144.934 36.7236C145.334 36.5236 145.668 36.4236 145.934 36.4236L147.334 36.6236C148.468 36.957 149.034 37.357 149.034 37.8236C149.034 38.157 149.134 38.5903 149.334 39.1236C149.601 39.657 149.834 39.9236 150.034 39.9236C150.368 39.9236 150.534 40.157 150.534 40.6236C150.534 41.0236 150.301 41.557 149.834 42.2236C149.434 42.8236 148.834 43.4236 148.034 44.0236C147.701 44.2236 147.201 44.5236 146.534 44.9236C145.934 45.3236 145.568 45.657 145.434 45.9236C145.368 46.1903 145.401 46.557 145.534 47.0236C145.801 47.557 145.934 48.2236 145.934 49.0236C145.934 51.2903 144.834 53.957 142.634 57.0236C140.434 60.0236 137.734 62.6903 134.534 65.0236C131.401 67.357 128.501 68.6903 125.834 69.0236ZM126.134 60.6236C126.534 60.6236 127.534 60.2236 129.134 59.4236C130.001 58.557 130.701 58.0236 131.234 57.8236C131.434 57.8236 131.601 57.657 131.734 57.3236C131.934 56.9236 132.234 56.357 132.634 55.6236C133.101 54.8237 133.834 53.7903 134.834 52.5236C135.901 51.3236 136.634 50.357 137.034 49.6236C137.501 48.8903 137.734 48.157 137.734 47.4236C137.734 47.157 137.668 46.6903 137.534 46.0236C137.468 45.8236 137.234 45.657 136.834 45.5236C136.501 45.3236 136.168 45.157 135.834 45.0236C135.501 45.0236 135.168 45.1236 134.834 45.3236C134.501 45.457 134.268 45.5236 134.134 45.5236C133.801 45.5236 133.434 45.357 133.034 45.0236L131.434 43.0236L129.734 44.7236C128.201 46.257 126.901 48.3236 125.834 50.9236C124.834 53.5236 124.234 55.8903 124.034 58.0236C123.968 58.957 124.101 59.6236 124.434 60.0236C124.834 60.357 125.401 60.557 126.134 60.6236Z" fill="#3F454A"/>
</svg>
