<svg width="246" height="62" viewBox="0 0 246 62" fill="none" xmlns="http://www.w3.org/2000/svg">
<g filter="url(#filter0_b_265_567)">
<circle cx="31" cy="31" r="31" fill="white" fill-opacity="0.15"/>
<circle cx="31" cy="31" r="29.5" stroke="#009CD9" stroke-width="3"/>
</g>
<path d="M33.0949 44V32.1595H37.2412L37.8575 27.5235H33.0949V24.5706C33.0949 23.2328 33.4818 22.3169 35.4747 22.3169H38V18.1837C36.7713 18.0569 35.5363 17.9956 34.3006 18.0002C30.6356 18.0002 28.1193 20.1557 28.1193 24.1126V27.5149H24V32.1508H28.1283V44H33.0949Z" fill="#009CD9"/>
<g filter="url(#filter1_b_265_567)">
<circle cx="215" cy="31" r="31" fill="white" fill-opacity="0.15"/>
<circle cx="215" cy="31" r="29.5" stroke="#D8AD3D" stroke-width="3"/>
</g>
<path d="M228.143 24.9373C227.991 24.3739 227.694 23.86 227.282 23.4469C226.87 23.0338 226.356 22.7358 225.793 22.5827C223.705 22.0093 215.352 22 215.352 22C215.352 22 207 21.9907 204.911 22.5387C204.348 22.6989 203.836 23.001 203.423 23.4162C203.011 23.8313 202.712 24.3455 202.556 24.9093C202.005 26.9973 202 31.328 202 31.328C202 31.328 201.995 35.68 202.541 37.7467C202.848 38.8893 203.748 39.792 204.892 40.1C207.001 40.6733 215.332 40.6827 215.332 40.6827C215.332 40.6827 223.685 40.692 225.773 40.1453C226.337 39.9925 226.85 39.6952 227.264 39.2829C227.677 38.8706 227.975 38.3577 228.129 37.7947C228.681 35.708 228.685 31.3787 228.685 31.3787C228.685 31.3787 228.712 27.0253 228.143 24.9373ZM212.68 35.34L212.687 27.34L219.629 31.3467L212.68 35.34Z" fill="#D8AD3D"/>
<g filter="url(#filter2_b_265_567)">
<circle cx="123" cy="31" r="31" fill="white" fill-opacity="0.15"/>
<circle cx="123" cy="31" r="29.5" stroke="#B72C2C" stroke-width="3"/>
</g>
<path d="M134.36 26.6326C134.347 25.689 134.171 24.7549 133.838 23.8719C133.549 23.1271 133.109 22.4507 132.544 21.8859C131.979 21.3211 131.303 20.8803 130.558 20.5917C129.686 20.2646 128.765 20.0876 127.835 20.0685C126.636 20.0149 126.256 20 123.214 20C120.172 20 119.782 20 118.592 20.0685C117.662 20.0878 116.741 20.2647 115.87 20.5917C115.125 20.8801 114.449 21.3208 113.884 21.8857C113.319 22.4505 112.878 23.127 112.59 23.8719C112.262 24.7429 112.085 25.6635 112.068 26.594C112.014 27.7937 111.998 28.1736 111.998 31.2158C111.998 34.258 111.998 34.6467 112.068 35.8377C112.086 36.7696 112.262 37.6889 112.59 38.5622C112.879 39.3069 113.32 39.9832 113.885 40.5478C114.45 41.1123 115.126 41.5529 115.871 41.8412C116.74 42.1815 117.661 42.3711 118.593 42.4018C119.793 42.4553 120.173 42.4715 123.215 42.4715C126.257 42.4715 126.647 42.4715 127.837 42.4018C128.768 42.3834 129.689 42.2069 130.56 41.8798C131.305 41.5909 131.981 41.15 132.546 40.5852C133.111 40.0205 133.552 39.3442 133.84 38.5996C134.168 37.7276 134.344 36.8082 134.362 35.8751C134.416 34.6766 134.432 34.2967 134.432 31.2532C134.43 28.211 134.43 27.8248 134.36 26.6326ZM123.206 36.9689C120.025 36.9689 117.447 34.3913 117.447 31.2096C117.447 28.0279 120.025 25.4503 123.206 25.4503C124.734 25.4503 126.199 26.0571 127.279 27.1372C128.359 28.2173 128.966 29.6821 128.966 31.2096C128.966 32.7371 128.359 34.202 127.279 35.282C126.199 36.3621 124.734 36.9689 123.206 36.9689ZM129.195 26.5803C128.451 26.5803 127.852 25.9798 127.852 25.2373C127.852 25.061 127.887 24.8865 127.954 24.7236C128.022 24.5607 128.12 24.4128 128.245 24.2881C128.37 24.1635 128.518 24.0646 128.681 23.9971C128.843 23.9297 129.018 23.895 129.194 23.895C129.371 23.895 129.545 23.9297 129.708 23.9971C129.871 24.0646 130.019 24.1635 130.143 24.2881C130.268 24.4128 130.367 24.5607 130.434 24.7236C130.502 24.8865 130.537 25.061 130.537 25.2373C130.537 25.9798 129.936 26.5803 129.195 26.5803Z" fill="#B72C2C"/>
<path d="M123.206 34.9508C125.272 34.9508 126.947 33.2758 126.947 31.2097C126.947 29.1435 125.272 27.4686 123.206 27.4686C121.14 27.4686 119.465 29.1435 119.465 31.2097C119.465 33.2758 121.14 34.9508 123.206 34.9508Z" fill="#B72C2C"/>
<defs>
<filter id="filter0_b_265_567" x="-14" y="-14" width="90" height="90" filterUnits="userSpaceOnUse" color-interpolation-filters="sRGB">
<feFlood flood-opacity="0" result="BackgroundImageFix"/>
<feGaussianBlur in="BackgroundImageFix" stdDeviation="7"/>
<feComposite in2="SourceAlpha" operator="in" result="effect1_backgroundBlur_265_567"/>
<feBlend mode="normal" in="SourceGraphic" in2="effect1_backgroundBlur_265_567" result="shape"/>
</filter>
<filter id="filter1_b_265_567" x="170" y="-14" width="90" height="90" filterUnits="userSpaceOnUse" color-interpolation-filters="sRGB">
<feFlood flood-opacity="0" result="BackgroundImageFix"/>
<feGaussianBlur in="BackgroundImageFix" stdDeviation="7"/>
<feComposite in2="SourceAlpha" operator="in" result="effect1_backgroundBlur_265_567"/>
<feBlend mode="normal" in="SourceGraphic" in2="effect1_backgroundBlur_265_567" result="shape"/>
</filter>
<filter id="filter2_b_265_567" x="78" y="-14" width="90" height="90" filterUnits="userSpaceOnUse" color-interpolation-filters="sRGB">
<feFlood flood-opacity="0" result="BackgroundImageFix"/>
<feGaussianBlur in="BackgroundImageFix" stdDeviation="7"/>
<feComposite in2="SourceAlpha" operator="in" result="effect1_backgroundBlur_265_567"/>
<feBlend mode="normal" in="SourceGraphic" in2="effect1_backgroundBlur_265_567" result="shape"/>
</filter>
</defs>
</svg>
